<?xml version="1.0" standalone="no"?>
<!DOCTYPE svg PUBLIC "-//W3C//DTD SVG 20010904//EN"
 "http://www.w3.org/TR/2001/REC-SVG-20010904/DTD/svg10.dtd">
<svg version="1.0" xmlns="http://www.w3.org/2000/svg"
 width="32.000000pt" height="32.000000pt" viewBox="0 0 32.000000 32.000000"
 preserveAspectRatio="xMidYMid meet">

<g transform="translate(0.000000,32.000000) scale(0.100000,-0.100000)"
fill="#000000" stroke="none">
<path d="M64 288 c-32 -15 -44 -51 -44 -128 0 -80 12 -113 47 -129 31 -14 155
-14 186 0 35 16 47 49 47 129 0 80 -12 113 -47 129 -30 14 -160 13 -189 -1z
m191 -33 c22 -21 25 -33 25 -95 0 -62 -3 -74 -25 -95 -21 -22 -33 -25 -95 -25
-62 0 -74 3 -95 25 -22 21 -25 33 -25 95 0 62 3 74 25 95 21 22 33 25 95 25
62 0 74 -3 95 -25z"/>
<path d="M220 236 c0 -9 7 -16 16 -16 17 0 14 22 -4 28 -7 2 -12 -3 -12 -12z"/>
<path d="M115 205 c-14 -13 -25 -33 -25 -45 0 -27 43 -70 70 -70 27 0 70 43
70 70 0 27 -43 70 -70 70 -11 0 -32 -11 -45 -25z m77 -12 c22 -20 23 -41 1
-65 -20 -22 -41 -23 -65 -1 -22 20 -23 41 -1 65 20 22 41 23 65 1z"/>
</g>
</svg>
